<?xml version="1.0" encoding="UTF-8"?>
<svg width="800px" height="400px" viewBox="0 0 800 400" version="1.1" xmlns="http://www.w3.org/2000/svg" xmlns:xlink="http://www.w3.org/1999/xlink">
    <title>World Map Dots</title>
    <g stroke="none" fill="#3B82F6" fill-opacity="0.3">
        <!-- Europa -->
        <circle cx="420" cy="120" r="3"></circle>
        <circle cx="410" cy="110" r="3"></circle>
        <circle cx="430" cy="115" r="3"></circle>
        <circle cx="415" cy="130" r="3"></circle>
        <circle cx="425" cy="125" r="3"></circle>
        <circle cx="405" cy="120" r="3"></circle>
        <circle cx="435" cy="110" r="3"></circle>
        <circle cx="440" cy="125" r="3"></circle>
        <circle cx="420" cy="140" r="3"></circle>
        <circle cx="400" cy="135" r="3"></circle>
        <circle cx="390" cy="125" r="3"></circle>
        <circle cx="380" cy="115" r="3"></circle>
        <circle cx="395" cy="105" r="3"></circle>
        
        <!-- Asia -->
        <circle cx="500" cy="140" r="3"></circle>
        <circle cx="520" cy="130" r="3"></circle>
        <circle cx="540" cy="150" r="3"></circle>
        <circle cx="560" cy="140" r="3"></circle>
        <circle cx="580" cy="160" r="3"></circle>
        <circle cx="510" cy="160" r="3"></circle>
        <circle cx="530" cy="170" r="3"></circle>
        <circle cx="550" cy="180" r="3"></circle>
        <circle cx="570" cy="150" r="3"></circle>
        <circle cx="590" cy="140" r="3"></circle>
        <circle cx="600" cy="160" r="3"></circle>
        <circle cx="620" cy="150" r="3"></circle>
        
        <!-- América del Norte -->
        <circle cx="200" cy="130" r="3"></circle>
        <circle cx="180" cy="120" r="3"></circle>
        <circle cx="160" cy="140" r="3"></circle>
        <circle cx="140" cy="130" r="3"></circle>
        <circle cx="120" cy="150" r="3"></circle>
        <circle cx="190" cy="150" r="3"></circle>
        <circle cx="170" cy="160" r="3"></circle>
        <circle cx="150" cy="170" r="3"></circle>
        <circle cx="130" cy="140" r="3"></circle>
        <circle cx="110" cy="130" r="3"></circle>
        <circle cx="100" cy="150" r="3"></circle>
        <circle cx="80" cy="140" r="3"></circle>
        
        <!-- América del Sur -->
        <circle cx="250" cy="250" r="3"></circle>
        <circle cx="240" cy="270" r="3"></circle>
        <circle cx="230" cy="290" r="3"></circle>
        <circle cx="220" cy="260" r="3"></circle>
        <circle cx="210" cy="280" r="3"></circle>
        <circle cx="200" cy="300" r="3"></circle>
        <circle cx="245" cy="280" r="3"></circle>
        <circle cx="235" cy="300" r="3"></circle>
        <circle cx="225" cy="270" r="3"></circle>
        <circle cx="215" cy="290" r="3"></circle>
        <circle cx="205" cy="260" r="3"></circle>
        
        <!-- África -->
        <circle cx="420" cy="220" r="3"></circle>
        <circle cx="430" cy="240" r="3"></circle>
        <circle cx="440" cy="260" r="3"></circle>
        <circle cx="410" cy="230" r="3"></circle>
        <circle cx="420" cy="250" r="3"></circle>
        <circle cx="430" cy="270" r="3"></circle>
        <circle cx="415" cy="240" r="3"></circle>
        <circle cx="425" cy="260" r="3"></circle>
        <circle cx="435" cy="230" r="3"></circle>
        <circle cx="405" cy="250" r="3"></circle>
        <circle cx="415" cy="270" r="3"></circle>
        
        <!-- Oceanía -->
        <circle cx="650" cy="280" r="3"></circle>
        <circle cx="670" cy="290" r="3"></circle>
        <circle cx="660" cy="270" r="3"></circle>
        <circle cx="680" cy="280" r="3"></circle>
        <circle cx="640" cy="290" r="3"></circle>
        <circle cx="650" cy="300" r="3"></circle>
        <circle cx="670" cy="270" r="3"></circle>
        <circle cx="660" cy="290" r="3"></circle>
        <circle cx="680" cy="300" r="3"></circle>
        <circle cx="640" cy="270" r="3"></circle>
    </g>
</svg>
